<?xml version='1.0' encoding='utf-8' ?>
<!DOCTYPE svg PUBLIC "-//W3C//DTD SVG 1.1//EN" "http://www.w3.org/Graphics/SVG/1.1/DTD/svg11.dtd">
<svg height='64' viewBox='0 0 64 64' width='64' xmlns='http://www.w3.org/2000/svg'>
  <path stroke='grey' fill='#fff' d="M 16,24 l 14 -14
       c 1,-2 6,-3 6,2
       v 40
       c 0,5 -5,4 -6,2
       l -14 -14 h -8
       a 4 4 1 0 1 -4 -4 v -8 a 4 4 1 0 1 4 -4 z"/>
  <g transform='translate(32,32)'>
    <g transform='rotate(45)'>
      <g transform='translate(-32,-32)'>
        <path stroke='grey' fill='#fff' d="M 32,0 a 32 32 1 0 1 32 32 h -4
          a 28 28 0 0 0 -28 -28 z
          M 32,8 a 24 24 1 0 1 24 24 h -4
                    a 20 20 0 0 0 -20 -20 z
          M 32,16 a 16 16 1 0 1 16 16 h -4
                    a 12 12 0 0 0 -12 -12 z"/>
      </g>
    </g>
  </g>
</svg>
